<?xml version="1.0" encoding="UTF-8"?>
<svg xmlns="http://www.w3.org/2000/svg" version="1.1" width="500px" height="500px"
    style="shape-rendering:geometricPrecision; text-rendering:geometricPrecision; image-rendering:optimizeQuality; fill-rule:evenodd; clip-rule:evenodd"
    xmlns:xlink="http://www.w3.org/1999/xlink">
    <g>
        <path style="opacity:1" fill="#566775"
            d="M 119.5,-0.5 C 206.167,-0.5 292.833,-0.5 379.5,-0.5C 444.022,9.51885 483.189,46.5189 497,110.5C 498.143,156.478 498.643,202.478 498.5,248.5C 498.643,294.522 498.143,340.522 497,386.5C 486.447,443.387 453.28,479.554 397.5,495C 390.578,496.543 383.578,497.543 376.5,498C 291.5,498.667 206.5,498.667 121.5,498C 72.4141,492.893 36.2475,468.726 13,425.5C 6.14344,410.391 1.64344,394.724 -0.5,378.5C -0.5,292.5 -0.5,206.5 -0.5,120.5C 10.0429,50.9571 50.0429,10.6238 119.5,-0.5 Z" />
    </g>
    <g>
        <path style="opacity:1" fill="#010203"
            d="M 379.5,132.5 C 399.66,133.497 419.993,133.83 440.5,133.5C 440.5,137.833 440.5,142.167 440.5,146.5C 434.095,145.406 431.762,148.073 433.5,154.5C 431.167,154.5 428.833,154.5 426.5,154.5C 426.5,156.833 426.5,159.167 426.5,161.5C 416.145,161.168 405.812,161.501 395.5,162.5C 395.624,163.107 395.957,163.44 396.5,163.5C 418.144,202.673 439.644,242.006 461,281.5C 464.2,302.901 457.7,320.735 441.5,335C 426.389,347.64 409.223,356.473 390,361.5C 388.289,361.561 386.956,360.894 386,359.5C 372.296,339.133 356.463,320.633 338.5,304C 314.5,284.667 290.5,265.333 266.5,246C 251.476,232.653 238.309,217.82 227,201.5C 224,195.5 221,189.5 218,183.5C 214.171,171.592 213.671,159.592 216.5,147.5C 214.833,147.5 213.167,147.5 211.5,147.5C 211.198,144.941 211.532,142.607 212.5,140.5C 216.833,140.5 221.167,140.5 225.5,140.5C 225.5,142.833 225.5,145.167 225.5,147.5C 223.071,153.983 222.905,160.649 225,167.5C 229.999,179.502 236.999,190.169 246,199.5C 254.536,207.705 263.369,215.538 272.5,223C 299.833,242.333 327.167,261.667 354.5,281C 368.103,293.598 380.603,307.098 392,321.5C 394.427,326.03 397.094,330.363 400,334.5C 423.786,327.374 436.453,311.374 438,286.5C 410.575,241.26 383.409,195.927 356.5,150.5C 356.217,149.711 355.717,149.044 355,148.5C 354.505,150.473 354.338,152.473 354.5,154.5C 352.167,154.5 349.833,154.5 347.5,154.5C 347.5,156.833 347.5,159.167 347.5,161.5C 345.167,161.5 342.833,161.5 340.5,161.5C 340.5,163.833 340.5,166.167 340.5,168.5C 323.833,168.5 307.167,168.5 290.5,168.5C 290.5,166.167 290.5,163.833 290.5,161.5C 288.167,161.5 285.833,161.5 283.5,161.5C 283.5,159.167 283.5,156.833 283.5,154.5C 281.167,154.5 278.833,154.5 276.5,154.5C 276.5,152.167 276.5,149.833 276.5,147.5C 274.167,147.5 271.833,147.5 269.5,147.5C 269.5,145.167 269.5,142.833 269.5,140.5C 255.167,140.5 240.833,140.5 226.5,140.5C 226.5,138.167 226.5,135.833 226.5,133.5C 266.172,133.833 305.839,133.5 345.5,132.5C 345.376,131.893 345.043,131.56 344.5,131.5C 339.897,122.462 334.897,113.629 329.5,105C 333.378,92.8092 337.712,80.8092 342.5,69C 340.5,68.3333 338.5,68.3333 336.5,69C 318.578,75.461 301.578,83.7943 285.5,94C 269.212,92.6039 252.879,91.4372 236.5,90.5C 165.826,92.5764 113.659,124.576 80,186.5C 57.2284,232.668 55.5618,279.668 75,327.5C 98.3791,379.382 136.879,414.715 190.5,433.5C 217.254,443.071 244.92,446.238 273.5,443C 285.665,441.606 297.331,438.773 308.5,434.5C 338.315,425.849 363.981,410.349 385.5,388C 390.662,386.576 392.829,388.41 392,393.5C 368.16,426.954 335.993,448.12 295.5,457C 226.595,469.69 164.261,455.023 108.5,413C 49.5003,361.595 26.667,297.095 40,219.5C 58.9474,138.552 108.781,88.0524 189.5,68C 205.944,64.1711 222.61,61.8378 239.5,61C 255.846,60.5502 272.179,60.5502 288.5,61C 307.406,47.8071 328.406,40.1404 351.5,38C 357.801,36.8206 364.135,36.4873 370.5,37C 371.804,37.804 372.471,38.9707 372.5,40.5C 367.461,58.4903 363.128,76.657 359.5,95C 365.291,108.089 371.958,120.589 379.5,132.5 Z" />
    </g>
    <g>
        <path style="opacity:1" fill="#374148"
            d="M 344.5,131.5 C 345.043,131.56 345.376,131.893 345.5,132.5C 305.839,133.5 266.172,133.833 226.5,133.5C 265.833,132.833 305.167,132.167 344.5,131.5 Z" />
    </g>
    <g>
        <path style="opacity:1" fill="#323c43"
            d="M 379.5,132.5 C 400.167,132.5 420.833,132.5 441.5,132.5C 441.5,137.833 441.5,143.167 441.5,148.5C 439.167,148.5 436.833,148.5 434.5,148.5C 434.795,150.735 434.461,152.735 433.5,154.5C 431.762,148.073 434.095,145.406 440.5,146.5C 440.5,142.167 440.5,137.833 440.5,133.5C 419.993,133.83 399.66,133.497 379.5,132.5 Z" />
    </g>
    <g>
        <path style="opacity:1" fill="#39444c"
            d="M 226.5,133.5 C 226.5,135.833 226.5,138.167 226.5,140.5C 240.833,140.5 255.167,140.5 269.5,140.5C 269.5,142.833 269.5,145.167 269.5,147.5C 268.539,145.735 268.205,143.735 268.5,141.5C 254.5,141.5 240.5,141.5 226.5,141.5C 226.795,143.735 226.461,145.735 225.5,147.5C 225.5,145.167 225.5,142.833 225.5,140.5C 221.167,140.5 216.833,140.5 212.5,140.5C 216.634,139.515 220.968,139.182 225.5,139.5C 225.205,137.265 225.539,135.265 226.5,133.5 Z" />
    </g>
    <g>
        <path style="opacity:1" fill="#556775"
            d="M 269.5,147.5 C 271.265,148.461 273.265,148.795 275.5,148.5C 275.5,151.167 275.5,153.833 275.5,156.5C 277.833,156.5 280.167,156.5 282.5,156.5C 282.338,158.527 282.505,160.527 283,162.5C 285.147,163.113 287.314,163.779 289.5,164.5C 288.038,164.065 287.038,164.898 286.5,167C 288.054,168.855 288.721,170.689 288.5,172.5C 305.839,170.86 323.172,169.86 340.5,169.5C 341.468,167.393 341.802,165.059 341.5,162.5C 343.735,162.795 345.735,162.461 347.5,161.5C 348.461,159.735 348.795,157.735 348.5,155.5C 350.833,155.5 353.167,155.5 355.5,155.5C 355.216,153.585 355.549,151.919 356.5,150.5C 383.409,195.927 410.575,241.26 438,286.5C 436.453,311.374 423.786,327.374 400,334.5C 397.094,330.363 394.427,326.03 392,321.5C 380.603,307.098 368.103,293.598 354.5,281C 327.167,261.667 299.833,242.333 272.5,223C 263.369,215.538 254.536,207.705 246,199.5C 236.999,190.169 229.999,179.502 225,167.5C 222.905,160.649 223.071,153.983 225.5,147.5C 226.461,145.735 226.795,143.735 226.5,141.5C 240.5,141.5 254.5,141.5 268.5,141.5C 268.205,143.735 268.539,145.735 269.5,147.5 Z" />
    </g>
    <g>
        <path style="opacity:1" fill="#303940"
            d="M 391.5,139.5 C 393.833,139.5 396.167,139.5 398.5,139.5C 398.5,142.167 398.5,144.833 398.5,147.5C 400.833,147.5 403.167,147.5 405.5,147.5C 405.5,150.167 405.5,152.833 405.5,155.5C 399.073,157.238 396.406,154.905 397.5,148.5C 395.5,148.5 393.5,148.5 391.5,148.5C 391.785,150.288 391.452,151.955 390.5,153.5C 389.594,151.614 388.594,149.78 387.5,148C 388.448,147.517 389.448,147.351 390.5,147.5C 390.279,144.721 390.612,142.054 391.5,139.5 Z" />
    </g>
    <g>
        <path style="opacity:1" fill="#586772"
            d="M 391.5,141.5 C 393.5,141.5 395.5,141.5 397.5,141.5C 397.5,143.167 397.5,144.833 397.5,146.5C 395.5,146.5 393.5,146.5 391.5,146.5C 391.5,144.833 391.5,143.167 391.5,141.5 Z" />
    </g>
    <g>
        <path style="opacity:1" fill="#4b565f"
            d="M 297.5,147.5 C 297.5,149.833 297.5,152.167 297.5,154.5C 295.167,154.5 292.833,154.5 290.5,154.5C 290.5,152.167 290.5,149.833 290.5,147.5C 288.167,147.5 285.833,147.5 283.5,147.5C 283.5,145.167 283.5,142.833 283.5,140.5C 285.833,140.5 288.167,140.5 290.5,140.5C 289.167,146.5 291.5,148.833 297.5,147.5 Z" />
    </g>
    <g>
        <path style="opacity:1" fill="#2e373e"
            d="M 311.5,148.5 C 312.461,150.265 312.795,152.265 312.5,154.5C 314.833,154.5 317.167,154.5 319.5,154.5C 319.5,157.167 319.5,159.833 319.5,162.5C 313.073,164.238 310.406,161.905 311.5,155.5C 309.5,155.5 307.5,155.5 305.5,155.5C 305.795,157.735 305.461,159.735 304.5,161.5C 302.393,162.468 300.059,162.802 297.5,162.5C 297.5,160.167 297.5,157.833 297.5,155.5C 294.941,155.802 292.607,155.468 290.5,154.5C 292.833,154.5 295.167,154.5 297.5,154.5C 297.5,152.167 297.5,149.833 297.5,147.5C 297.5,145.167 297.5,142.833 297.5,140.5C 300.167,140.5 302.833,140.5 305.5,140.5C 305.5,142.833 305.5,145.167 305.5,147.5C 307.735,147.205 309.735,147.539 311.5,148.5 Z" />
    </g>
    <g>
        <path style="opacity:1" fill="#52626f"
            d="M 311.5,148.5 C 311.5,150.5 311.5,152.5 311.5,154.5C 309.5,154.5 307.5,154.5 305.5,154.5C 305.5,152.5 305.5,150.5 305.5,148.5C 307.5,148.5 309.5,148.5 311.5,148.5 Z" />
    </g>
    <g>
        <path style="opacity:1" fill="#020407"
            d="M 298.5,148.5 C 300.5,148.5 302.5,148.5 304.5,148.5C 304.5,150.5 304.5,152.5 304.5,154.5C 302.5,154.5 300.5,154.5 298.5,154.5C 298.5,152.5 298.5,150.5 298.5,148.5 Z" />
    </g>
    <g>
        <path style="opacity:1" fill="#556570"
            d="M 298.5,141.5 C 300.5,141.5 302.5,141.5 304.5,141.5C 304.5,143.167 304.5,144.833 304.5,146.5C 302.5,146.5 300.5,146.5 298.5,146.5C 298.5,144.833 298.5,143.167 298.5,141.5 Z" />
    </g>
    <g>
        <path style="opacity:1" fill="#586872"
            d="M 398.5,148.5 C 400.5,148.5 402.5,148.5 404.5,148.5C 404.5,150.167 404.5,151.833 404.5,153.5C 402.5,153.5 400.5,153.5 398.5,153.5C 398.5,151.833 398.5,150.167 398.5,148.5 Z" />
    </g>
    <g>
        <path style="opacity:1" fill="#2e363d"
            d="M 356.5,150.5 C 355.549,151.919 355.216,153.585 355.5,155.5C 353.167,155.5 350.833,155.5 348.5,155.5C 348.795,157.735 348.461,159.735 347.5,161.5C 347.5,159.167 347.5,156.833 347.5,154.5C 349.833,154.5 352.167,154.5 354.5,154.5C 354.338,152.473 354.505,150.473 355,148.5C 355.717,149.044 356.217,149.711 356.5,150.5 Z" />
    </g>
    <g>
        <path style="opacity:1" fill="#556471"
            d="M 304.5,161.5 C 302.5,161.5 300.5,161.5 298.5,161.5C 298.5,159.5 298.5,157.5 298.5,155.5C 300.5,155.5 302.5,155.5 304.5,155.5C 304.5,157.5 304.5,159.5 304.5,161.5 Z" />
    </g>
    <g>
        <path style="opacity:1" fill="#576672"
            d="M 312.5,155.5 C 314.5,155.5 316.5,155.5 318.5,155.5C 318.5,157.167 318.5,158.833 318.5,160.5C 316.5,160.5 314.5,160.5 312.5,160.5C 312.5,158.833 312.5,157.167 312.5,155.5 Z" />
    </g>
    <g>
        <path style="opacity:1" fill="#2a333a"
            d="M 426.5,161.5 C 416.5,162.167 406.5,162.833 396.5,163.5C 395.957,163.44 395.624,163.107 395.5,162.5C 405.812,161.501 416.145,161.168 426.5,161.5 Z" />
    </g>
    <g>
        <path style="opacity:1" fill="#4b5863"
            d="M 269.5,147.5 C 271.833,147.5 274.167,147.5 276.5,147.5C 276.5,149.833 276.5,152.167 276.5,154.5C 278.833,154.5 281.167,154.5 283.5,154.5C 283.5,156.833 283.5,159.167 283.5,161.5C 285.833,161.5 288.167,161.5 290.5,161.5C 290.5,163.833 290.5,166.167 290.5,168.5C 306.992,169.497 323.658,169.83 340.5,169.5C 323.172,169.86 305.839,170.86 288.5,172.5C 288.721,170.689 288.054,168.855 286.5,167C 287.038,164.898 288.038,164.065 289.5,164.5C 287.314,163.779 285.147,163.113 283,162.5C 282.505,160.527 282.338,158.527 282.5,156.5C 280.167,156.5 277.833,156.5 275.5,156.5C 275.5,153.833 275.5,151.167 275.5,148.5C 273.265,148.795 271.265,148.461 269.5,147.5 Z" />
    </g>
    <g>
        <path style="opacity:1" fill="#262f35"
            d="M 347.5,161.5 C 345.735,162.461 343.735,162.795 341.5,162.5C 341.802,165.059 341.468,167.393 340.5,169.5C 323.658,169.83 306.992,169.497 290.5,168.5C 307.167,168.5 323.833,168.5 340.5,168.5C 340.5,166.167 340.5,163.833 340.5,161.5C 342.833,161.5 345.167,161.5 347.5,161.5 Z" />
    </g>
    <g>
        <path style="opacity:1" fill="#515e68"
            d="M 308.5,434.5 C 297.331,438.773 285.665,441.606 273.5,443C 244.92,446.238 217.254,443.071 190.5,433.5C 193.249,433.726 195.916,433.393 198.5,432.5C 202.167,433.667 205.833,434.833 209.5,436C 208.833,436.333 208.167,436.667 207.5,437C 213.329,437.963 218.996,439.297 224.5,441C 230.127,441.931 235.794,442.431 241.5,442.5C 248.854,441.49 256.188,441.49 263.5,442.5C 270.77,441.023 278.104,439.857 285.5,439C 292.55,436.301 300.217,434.801 308.5,434.5 Z" />
    </g>
</svg>